<?xml version="1.0" encoding="UTF-8"?>
<svg id="Layer_2" data-name="Layer 2" xmlns="http://www.w3.org/2000/svg" viewBox="0 0 1217.26 206.91">
  <g id="Layer_1-2" data-name="Layer 1">
    <g>
      <path d="M302.57,55.1c-2.33-18.36-4.65-36.73-6.97-55.1-17.65,7.64-35.3,15.28-52.95,22.91,5.93,3.36,11.87,6.72,17.8,10.08-19.01,35.97-38.02,71.93-57.03,107.89-16.1-29.5-32.21-59-48.31-88.5h-27.25c-17,28.96-34,57.93-51.01,86.89-15.44-28.96-30.89-57.93-46.34-86.89H0c17.81,34.57,35.63,69.16,53.44,103.74-4.38,5.37-7,12.21-7,19.67,0,17.19,13.93,31.12,31.12,31.12s31.12-13.93,31.12-31.12c0-7.75-2.83-14.84-7.51-20.29,13.26-22.55,26.52-45.1,39.77-67.66,12.76,22.81,25.51,45.62,38.25,68.43-4.31,5.34-6.88,12.13-6.88,19.52,0,17.19,13.93,31.12,31.12,31.12s31.12-13.93,31.12-31.12c0-7.81-2.88-14.96-7.64-20.43,19.59-36.43,39.19-72.86,58.79-109.29,5.62,3.01,11.24,6.02,16.87,9.03ZM77.56,188.21c-6.62,0-12.03-5.18-12.4-11.71-.01-.24-.02-.47-.02-.71,0-6.86,5.56-12.42,12.42-12.42,6.47,0,11.78,4.94,12.37,11.26.03.38.05.77.05,1.16,0,6.86-5.56,12.42-12.42,12.42ZM215.85,175.93c-.08,6.8-5.61,12.28-12.42,12.28-6.23,0-11.38-4.58-12.28-10.56h-.01c-.08-.61-.13-1.23-.13-1.86,0-6.86,5.56-12.42,12.42-12.42s12.42,5.56,12.42,12.42v.14Z"/>
      <g>
        <path d="M356.69,137.73l22.92-2.23c1.38,7.69,4.18,13.34,8.4,16.95,4.22,3.61,9.91,5.41,17.07,5.41,7.59,0,13.3-1.6,17.15-4.81,3.85-3.21,5.77-6.96,5.77-11.26,0-2.76-.81-5.11-2.43-7.04-1.62-1.94-4.44-3.62-8.47-5.05-2.76-.95-9.05-2.65-18.86-5.09-12.63-3.13-21.49-6.98-26.58-11.54-7.16-6.42-10.74-14.24-10.74-23.48,0-5.94,1.68-11.5,5.05-16.67,3.37-5.17,8.22-9.11,14.56-11.82,6.34-2.71,13.99-4.06,22.96-4.06,14.64,0,25.66,3.21,33.07,9.63,7.4,6.42,11.29,14.99,11.66,25.7l-23.56,1.03c-1.01-5.99-3.17-10.3-6.49-12.93-3.32-2.63-8.29-3.94-14.92-3.94s-12.2,1.41-16.07,4.22c-2.49,1.8-3.74,4.22-3.74,7.24,0,2.76,1.17,5.12,3.5,7.08,2.97,2.49,10.19,5.09,21.65,7.8,11.46,2.71,19.93,5.5,25.43,8.4s9.79,6.84,12.89,11.86c3.1,5.01,4.66,11.21,4.66,18.58,0,6.68-1.86,12.95-5.57,18.78-3.71,5.84-8.97,10.17-15.76,13.01s-15.25,4.26-25.39,4.26c-14.75,0-26.08-3.41-33.98-10.23-7.91-6.82-12.63-16.75-14.17-29.8Z"/>
        <path d="M497.63,175.69v-96.93h-34.62v-19.74h92.71v19.74h-34.54v96.93h-23.56Z"/>
        <path d="M664.03,175.69h-25.62l-10.19-26.5h-46.63l-9.63,26.5h-24.99l45.44-116.66h24.91l46.71,116.66ZM620.66,129.53l-16.08-43.29-15.76,43.29h31.83Z"/>
        <path d="M690.69,175.69v-96.93h-34.62v-19.74h92.71v19.74h-34.54v96.93h-23.56Z"/>
        <path d="M763.98,175.69V59.02h86.5v19.74h-62.95v25.86h58.57v19.66h-58.57v31.75h65.18v19.66h-88.73Z"/>
        <path d="M889.24,175.69l-27.85-116.66h24.11l17.59,80.14,21.33-80.14h28.01l20.45,81.49,17.91-81.49h23.71l-28.33,116.66h-24.99l-23.24-87.22-23.16,87.22h-25.54Z"/>
        <path d="M1122.72,175.69h-25.62l-10.19-26.5h-46.63l-9.63,26.5h-24.99l45.44-116.66h24.91l46.71,116.66ZM1079.35,129.53l-16.08-43.29-15.76,43.29h31.83Z"/>
        <path d="M1150.89,175.69v-49.1l-42.73-67.56h27.61l27.46,46.16,26.9-46.16h27.14l-42.89,67.72v48.94h-23.48Z"/>
      </g>
    </g>
  </g>
</svg>
