<?xml version="1.0" encoding="UTF-8"?>
<svg id="Layer_2" data-name="Layer 2" xmlns="http://www.w3.org/2000/svg" viewBox="0 0 302.57 206.91">
  <defs>
    <style>
      .cls-1 {
        fill: #fff;
      }
    </style>
  </defs>
  <g id="Layer_1-2" data-name="Layer 1">
    <path class="cls-1" d="M302.57,55.1c-2.33-18.36-4.65-36.73-6.97-55.1-17.65,7.64-35.3,15.28-52.95,22.91,5.93,3.36,11.87,6.72,17.8,10.08-19.01,35.97-38.02,71.93-57.03,107.89-16.1-29.5-32.21-59-48.31-88.5h-27.25c-17,28.96-34,57.93-51.01,86.89-15.44-28.96-30.89-57.93-46.34-86.89H0c17.81,34.57,35.63,69.16,53.44,103.74-4.38,5.37-7,12.21-7,19.67,0,17.19,13.93,31.12,31.12,31.12s31.12-13.93,31.12-31.12c0-7.75-2.83-14.84-7.51-20.29,13.26-22.55,26.52-45.1,39.77-67.66,12.76,22.81,25.51,45.62,38.25,68.43-4.31,5.34-6.88,12.13-6.88,19.52,0,17.19,13.93,31.12,31.12,31.12s31.12-13.93,31.12-31.12c0-7.81-2.88-14.96-7.64-20.43,19.59-36.43,39.19-72.86,58.79-109.29,5.62,3.01,11.24,6.02,16.87,9.03ZM77.56,188.21c-6.62,0-12.03-5.18-12.4-11.71-.01-.24-.02-.47-.02-.71,0-6.86,5.56-12.42,12.42-12.42,6.47,0,11.78,4.94,12.37,11.26.03.38.05.77.05,1.16,0,6.86-5.56,12.42-12.42,12.42ZM215.85,175.93c-.08,6.8-5.61,12.28-12.42,12.28-6.23,0-11.38-4.58-12.28-10.56h-.01c-.08-.61-.13-1.23-.13-1.86,0-6.86,5.56-12.42,12.42-12.42s12.42,5.56,12.42,12.42v.14Z"/>
  </g>
</svg>