<?xml version="1.0" encoding="UTF-8"?>
<svg id="Layer_2" data-name="Layer 2" xmlns="http://www.w3.org/2000/svg" viewBox="0 0 188.72 162.25">
  <defs>
    <style>
      .cls-1 {
        fill: #dc9e29;
      }

      .cls-1, .cls-2 {
        fill-rule: evenodd;
      }

      .cls-3, .cls-2 {
        fill: #ffb900;
      }
    </style>
  </defs>
  <g id="OBJECTS">
    <g>
      <g>
        <path class="cls-3" d="M82.95,162.25l-5.81-3.31c19.29-12.63,37.82-9.64,38.56-9.65l.03,3c-.17,0-16.49-5.25-32.78,9.96Z"/>
        <path class="cls-3" d="M105.77,162.25l5.81-3.31c-19.29-12.63-37.82-9.64-38.56-9.65l-.03,3c.17,0,16.49-5.25,32.78,9.96Z"/>
        <g>
          <path class="cls-1" d="M24.95,22.28c6.94-6.21,13.83-15.12,26.66-22.28-9.93,1.42-24.62,10.19-26.66,22.28h0Z"/>
          <g>
            <g>
              <path class="cls-2" d="M34,22.73c-1.51.99-2.63,1.64-3.92,2.16-2.4.97-4.45,1.45-6.49,2.5-1.64.84-2.9,1.94-3.96,3.19-.97,1.14-1.66,2.15-2.16,3.21-1,2.12-1.68,5.3-1.35,7.57.85-1.23,1.65-2.19,2.51-3.07,1.33-1.35,2.68-2.36,4.18-3.28,1.09-.67,2.05-1.29,2.94-1.94,3.89-2.84,5.89-6.48,8.25-10.33h0Z"/>
              <path class="cls-1" d="M16.09,41.43c-.47-3.3,1.67-9.34,3.05-11.7.99-1.68,1.61-3.5,2.18-5.39,1-3.34,1.73-7.09,1.75-9.87-1.67,1.43-3.32,2.83-5.16,4.76-3.8,4.29-5.66,8.59-4.33,13.96.5,2.03,1.21,6.52,2.51,8.23h0Z"/>
            </g>
            <g>
              <path class="cls-2" d="M23.82,40.95c-1.27,1.22-2.24,2.06-3.39,2.8-2.16,1.38-4.08,2.2-5.86,3.59-1.43,1.11-2.44,2.4-3.22,3.81-.71,1.28-1.17,2.39-1.44,3.51-.54,2.24-.52,5.47.3,7.62.58-1.35,1.15-2.43,1.82-3.44,1.02-1.55,2.13-2.78,3.41-3.94.93-.85,1.74-1.63,2.48-2.42,3.22-3.46,4.41-7.36,5.91-11.54h0Z"/>
              <path class="cls-1" d="M10.19,62.37c-1.18-3.14-.37-9.41.49-11.95.61-1.81.84-3.71.99-5.65.27-3.43.18-7.23-.4-9.94-1.33,1.69-2.67,3.35-4.06,5.56-2.82,4.86-3.73,9.39-1.27,14.39.93,1.89,2.59,6.15,4.24,7.59h0Z"/>
            </g>
            <g>
              <path class="cls-2" d="M18.62,58.51c-.93,1.66-1.68,2.82-2.66,3.94-1.83,2.08-3.61,3.5-5.03,5.47-1.15,1.59-1.78,3.24-2.12,4.95-.31,1.56-.42,2.86-.32,4.13.21,2.52,1.35,5.93,2.98,7.97.15-1.59.38-2.9.75-4.16.55-1.93,1.32-3.55,2.28-5.15.7-1.17,1.3-2.22,1.82-3.26,2.25-4.58,2.16-9.05,2.31-13.89h0Z"/>
              <path class="cls-1" d="M11.49,85.06c-2.36-2.98-3.68-9.84-3.65-12.77.02-2.09-.4-4.16-.91-6.25-.91-3.71-2.33-7.69-3.9-10.39-.84,2.17-1.69,4.3-2.41,7.04-1.33,5.95-.72,10.99,3.66,15.57,1.66,1.73,4.93,5.75,7.2,6.8h0Z"/>
            </g>
            <g>
              <path class="cls-2" d="M17.85,78.44c-.55,1.84-1.03,3.13-1.75,4.43-1.36,2.42-2.81,4.18-3.78,6.43-.78,1.81-1.03,3.57-.97,5.34.05,1.61.25,2.94.65,4.17.8,2.47,2.76,5.65,4.88,7.36-.23-1.61-.29-2.96-.23-4.28.1-2.03.49-3.79,1.09-5.57.43-1.3.79-2.46,1.06-3.6,1.18-4.99.04-9.43-.94-14.29h0Z"/>
              <path class="cls-1" d="M16.91,106.26c-3.07-2.51-6.01-9.09-6.67-12.01-.47-2.09-1.38-4.07-2.39-6.06-1.78-3.52-4.15-7.21-6.36-9.59-.34,2.32-.69,4.61-.77,7.48.06,6.18,1.86,11.09,7.35,14.8,2.07,1.4,6.31,4.77,8.85,5.38h0Z"/>
            </g>
            <g>
              <path class="cls-2" d="M20.83,96.97c.08,2.04.04,3.5-.25,5.04-.55,2.87-1.43,5.09-1.64,7.67-.17,2.07.2,3.95.89,5.74.63,1.64,1.3,2.93,2.16,4.07,1.71,2.29,4.86,4.97,7.67,6.1-.81-1.58-1.35-2.94-1.75-4.31-.62-2.11-.83-4.02-.84-6-.01-1.45-.06-2.75-.18-3.99-.54-5.45-3.3-9.65-6.04-14.32h0Z"/>
              <path class="cls-1" d="M29.72,125.68c-4.08-1.67-9.46-7.53-11.18-10.33-1.23-2-2.87-3.75-4.63-5.49-3.09-3.07-6.86-6.15-10.01-7.95.47,2.48.92,4.92,1.86,7.87,2.25,6.3,5.86,10.79,12.87,12.98,2.65.83,8.24,3.04,11.09,2.92h0Z"/>
            </g>
            <g>
              <path class="cls-2" d="M30.48,114.53c.86,2.13,1.38,3.69,1.64,5.41.5,3.21.39,5.83,1.14,8.63.6,2.24,1.71,4.12,3.13,5.8,1.29,1.53,2.51,2.69,3.86,3.64,2.7,1.89,7.1,3.74,10.55,4.06-1.47-1.43-2.56-2.69-3.52-4.02-1.46-2.04-2.41-3.99-3.18-6.09-.56-1.53-1.1-2.89-1.7-4.16-2.64-5.6-7.2-9.18-11.91-13.27h0Z"/>
              <path class="cls-1" d="M50.89,142.13c-5.01-.5-13.01-5.02-15.92-7.45-2.08-1.73-4.51-3.08-7.05-4.37-4.49-2.28-9.7-4.38-13.76-5.29,1.44,2.47,2.84,4.91,4.97,7.75,4.8,5.96,10.38,9.59,18.74,9.73,3.16.05,10.01.65,13.02-.37h0Z"/>
            </g>
            <g>
              <path class="cls-2" d="M47.74,129.88c1.77,1.83,2.95,3.2,3.93,4.82,1.82,3.01,2.77,5.65,4.69,8.17,1.54,2.02,3.48,3.52,5.66,4.71,2,1.09,3.75,1.84,5.57,2.33,3.64.98,9.06,1.35,12.86.54-2.13-.92-3.81-1.81-5.36-2.81-2.37-1.53-4.17-3.15-5.84-4.98-1.22-1.33-2.33-2.5-3.49-3.56-5.07-4.67-11.36-6.72-18.02-9.2h0Z"/>
              <path class="cls-1" d="M80.58,150.47c-5.53,1.17-15.87-.67-19.94-2.11-2.91-1.03-6.03-1.56-9.26-2-5.7-.78-12.08-1.12-16.77-.69,2.53,1.96,5.01,3.93,8.41,6.03,7.51,4.31,14.91,6.07,23.86,3.43,3.39-1,10.91-2.67,13.7-4.67h0Z"/>
            </g>
          </g>
        </g>
        <g>
          <path class="cls-1" d="M163.78,22.28c-6.94-6.21-13.83-15.12-26.66-22.28,9.93,1.42,24.62,10.19,26.66,22.28h0Z"/>
          <g>
            <g>
              <path class="cls-2" d="M154.72,22.73c1.51.99,2.63,1.64,3.92,2.16,2.4.97,4.45,1.45,6.49,2.5,1.64.84,2.9,1.94,3.96,3.19.97,1.14,1.66,2.15,2.16,3.21,1,2.12,1.68,5.3,1.35,7.57-.85-1.23-1.65-2.19-2.51-3.07-1.33-1.35-2.68-2.36-4.18-3.28-1.09-.67-2.05-1.29-2.94-1.94-3.89-2.84-5.89-6.48-8.25-10.33h0Z"/>
              <path class="cls-1" d="M172.63,41.43c.47-3.3-1.67-9.34-3.05-11.7-.99-1.68-1.61-3.5-2.18-5.39-1-3.34-1.73-7.09-1.75-9.87,1.67,1.43,3.32,2.83,5.16,4.76,3.8,4.29,5.66,8.59,4.33,13.96-.5,2.03-1.21,6.52-2.51,8.23h0Z"/>
            </g>
            <g>
              <path class="cls-2" d="M164.91,40.95c1.27,1.22,2.24,2.06,3.39,2.8,2.16,1.38,4.08,2.2,5.86,3.59,1.43,1.11,2.44,2.4,3.22,3.81.71,1.28,1.17,2.39,1.44,3.51.54,2.24.52,5.47-.3,7.62-.58-1.35-1.15-2.43-1.82-3.44-1.02-1.55-2.13-2.78-3.41-3.94-.93-.85-1.74-1.63-2.48-2.42-3.22-3.46-4.41-7.36-5.91-11.54h0Z"/>
              <path class="cls-1" d="M178.53,62.37c1.18-3.14.37-9.41-.49-11.95-.61-1.81-.84-3.71-.99-5.65-.27-3.43-.18-7.23.4-9.94,1.33,1.69,2.67,3.35,4.06,5.56,2.82,4.86,3.73,9.39,1.27,14.39-.93,1.89-2.59,6.15-4.24,7.59h0Z"/>
            </g>
            <g>
              <path class="cls-2" d="M170.1,58.51c.93,1.66,1.68,2.82,2.66,3.94,1.83,2.08,3.61,3.5,5.03,5.47,1.15,1.59,1.78,3.24,2.12,4.95.31,1.56.42,2.86.32,4.13-.21,2.52-1.35,5.93-2.98,7.97-.15-1.59-.38-2.9-.75-4.16-.55-1.93-1.32-3.55-2.28-5.15-.7-1.17-1.3-2.22-1.82-3.26-2.25-4.58-2.16-9.05-2.31-13.89h0Z"/>
              <path class="cls-1" d="M177.24,85.06c2.36-2.98,3.68-9.84,3.65-12.77-.02-2.09.4-4.16.91-6.25.91-3.71,2.33-7.69,3.9-10.39.84,2.17,1.69,4.3,2.41,7.04,1.33,5.95.72,10.99-3.66,15.57-1.66,1.73-4.93,5.75-7.2,6.8h0Z"/>
            </g>
            <g>
              <path class="cls-2" d="M170.88,78.44c.55,1.84,1.03,3.13,1.75,4.43,1.36,2.42,2.81,4.18,3.78,6.43.78,1.81,1.03,3.57.97,5.34-.05,1.61-.25,2.94-.65,4.17-.8,2.47-2.76,5.65-4.88,7.36.23-1.61.29-2.96.23-4.28-.1-2.03-.49-3.79-1.09-5.57-.43-1.3-.79-2.46-1.06-3.6-1.18-4.99-.04-9.43.94-14.29h0Z"/>
              <path class="cls-1" d="M171.81,106.26c3.07-2.51,6.01-9.09,6.67-12.01.47-2.09,1.38-4.07,2.39-6.06,1.78-3.52,4.15-7.21,6.36-9.59.34,2.32.69,4.61.77,7.48-.06,6.18-1.86,11.09-7.35,14.8-2.07,1.4-6.31,4.77-8.85,5.38h0Z"/>
            </g>
            <g>
              <path class="cls-2" d="M167.9,96.97c-.08,2.04-.04,3.5.25,5.04.55,2.87,1.43,5.09,1.64,7.67.17,2.07-.2,3.95-.89,5.74-.63,1.64-1.3,2.93-2.16,4.07-1.71,2.29-4.86,4.97-7.67,6.1.81-1.58,1.35-2.94,1.75-4.31.62-2.11.83-4.02.84-6,.01-1.45.06-2.75.18-3.99.54-5.45,3.3-9.65,6.04-14.32h0Z"/>
              <path class="cls-1" d="M159,125.68c4.08-1.67,9.46-7.53,11.18-10.33,1.23-2,2.87-3.75,4.63-5.49,3.09-3.07,6.86-6.15,10.01-7.95-.47,2.48-.92,4.92-1.86,7.87-2.25,6.3-5.86,10.79-12.87,12.98-2.65.83-8.24,3.04-11.09,2.92h0Z"/>
            </g>
            <g>
              <path class="cls-2" d="M158.24,114.53c-.86,2.13-1.38,3.69-1.64,5.41-.5,3.21-.39,5.83-1.14,8.63-.6,2.24-1.71,4.12-3.13,5.8-1.29,1.53-2.51,2.69-3.86,3.64-2.7,1.89-7.1,3.74-10.55,4.06,1.47-1.43,2.56-2.69,3.52-4.02,1.46-2.04,2.41-3.99,3.18-6.09.56-1.53,1.1-2.89,1.7-4.16,2.64-5.6,7.2-9.18,11.91-13.27h0Z"/>
              <path class="cls-1" d="M137.83,142.13c5.01-.5,13.01-5.02,15.92-7.45,2.08-1.73,4.51-3.08,7.05-4.37,4.49-2.28,9.7-4.38,13.76-5.29-1.44,2.47-2.84,4.91-4.97,7.75-4.8,5.96-10.38,9.59-18.74,9.73-3.16.05-10.01.65-13.02-.37h0Z"/>
            </g>
            <g>
              <path class="cls-2" d="M140.99,129.88c-1.77,1.83-2.95,3.2-3.93,4.82-1.82,3.01-2.77,5.65-4.69,8.17-1.54,2.02-3.48,3.52-5.66,4.71-2,1.09-3.75,1.84-5.57,2.33-3.64.98-9.06,1.35-12.86.54,2.13-.92,3.81-1.81,5.36-2.81,2.37-1.53,4.17-3.15,5.84-4.98,1.22-1.33,2.33-2.5,3.49-3.56,5.07-4.67,11.36-6.72,18.02-9.2h0Z"/>
              <path class="cls-1" d="M108.14,150.47c5.53,1.17,15.87-.67,19.94-2.11,2.91-1.03,6.03-1.56,9.26-2,5.7-.78,12.08-1.12,16.77-.69-2.53,1.96-5.01,3.93-8.41,6.03-7.51,4.31-14.91,6.07-23.86,3.43-3.39-1-10.91-2.67-13.7-4.67h0Z"/>
            </g>
          </g>
        </g>
      </g>
      <g>
        <path class="cls-3" d="M44.68,62.63h-6.59v6.11h7.35v1.84h-9.54v-16.96h9.16v1.84h-6.97v5.36h6.59v1.81Z"/>
        <path class="cls-3" d="M54.95,70.58l-.18-1.54h-.08c-.68.96-1.99,1.81-3.72,1.81-2.47,0-3.72-1.74-3.72-3.5,0-2.94,2.62-4.55,7.32-4.53v-.25c0-1.01-.28-2.82-2.77-2.82-1.13,0-2.31.35-3.17.91l-.5-1.46c1.01-.65,2.47-1.08,4-1.08,3.72,0,4.63,2.54,4.63,4.98v4.55c0,1.06.05,2.09.2,2.92h-2.01ZM54.62,64.37c-2.42-.05-5.16.38-5.16,2.74,0,1.43.96,2.11,2.09,2.11,1.58,0,2.59-1.01,2.94-2.04.08-.23.13-.48.13-.71v-2.11Z"/>
        <path class="cls-3" d="M60.33,62.21c0-1.43-.03-2.67-.1-3.8h1.94l.08,2.39h.1c.55-1.64,1.89-2.67,3.37-2.67.25,0,.43.03.63.08v2.09c-.23-.05-.45-.08-.75-.08-1.56,0-2.67,1.18-2.97,2.84-.05.3-.1.65-.1,1.03v6.49h-2.19v-8.38Z"/>
        <path class="cls-3" d="M68.66,52.72h2.21v17.87h-2.21v-17.87Z"/>
        <path class="cls-3" d="M75.4,58.41l2.67,7.2c.28.81.58,1.76.78,2.49h.05c.23-.73.48-1.66.78-2.54l2.42-7.15h2.34l-3.32,8.68c-1.58,4.18-2.67,6.32-4.18,7.62-1.08.96-2.16,1.33-2.72,1.43l-.55-1.86c.55-.18,1.28-.53,1.94-1.08.6-.48,1.36-1.33,1.86-2.47.1-.23.18-.4.18-.53s-.05-.3-.15-.58l-4.5-11.22h2.42Z"/>
        <path class="cls-3" d="M91.56,67.92c.98.6,2.42,1.11,3.92,1.11,2.24,0,3.55-1.18,3.55-2.89,0-1.58-.91-2.49-3.2-3.37-2.77-.98-4.48-2.42-4.48-4.81,0-2.64,2.19-4.6,5.49-4.6,1.74,0,2.99.4,3.75.83l-.6,1.79c-.55-.3-1.69-.8-3.22-.8-2.31,0-3.2,1.38-3.2,2.54,0,1.58,1.03,2.37,3.37,3.27,2.87,1.11,4.33,2.49,4.33,4.98,0,2.62-1.94,4.88-5.94,4.88-1.64,0-3.42-.48-4.33-1.08l.55-1.84Z"/>
        <path class="cls-3" d="M106.78,54.91v3.5h3.17v1.69h-3.17v6.57c0,1.51.43,2.37,1.66,2.37.58,0,1.01-.08,1.28-.15l.1,1.66c-.43.18-1.11.3-1.96.3-1.03,0-1.86-.33-2.39-.93-.63-.65-.86-1.74-.86-3.17v-6.64h-1.89v-1.69h1.89v-2.92l2.16-.58Z"/>
        <path class="cls-3" d="M119.18,70.58l-.18-1.54h-.08c-.68.96-1.99,1.81-3.72,1.81-2.47,0-3.72-1.74-3.72-3.5,0-2.94,2.62-4.55,7.32-4.53v-.25c0-1.01-.28-2.82-2.77-2.82-1.13,0-2.31.35-3.17.91l-.5-1.46c1.01-.65,2.47-1.08,4-1.08,3.72,0,4.63,2.54,4.63,4.98v4.55c0,1.06.05,2.09.2,2.92h-2.01ZM118.86,64.37c-2.42-.05-5.16.38-5.16,2.74,0,1.43.96,2.11,2.09,2.11,1.58,0,2.59-1.01,2.94-2.04.08-.23.13-.48.13-.71v-2.11Z"/>
        <path class="cls-3" d="M135.06,58.41c-.05.88-.1,1.86-.1,3.35v7.07c0,2.79-.55,4.5-1.74,5.56-1.18,1.11-2.89,1.46-4.43,1.46s-3.07-.35-4.05-1.01l.55-1.69c.81.5,2.06.96,3.57.96,2.26,0,3.92-1.18,3.92-4.25v-1.36h-.05c-.68,1.13-1.99,2.04-3.88,2.04-3.02,0-5.18-2.57-5.18-5.94,0-4.13,2.69-6.47,5.49-6.47,2.11,0,3.27,1.11,3.8,2.11h.05l.1-1.84h1.94ZM132.77,63.21c0-.38-.02-.71-.12-1.01-.4-1.28-1.49-2.34-3.1-2.34-2.11,0-3.62,1.79-3.62,4.6,0,2.39,1.21,4.38,3.6,4.38,1.36,0,2.59-.86,3.07-2.26.13-.38.18-.8.18-1.18v-2.19Z"/>
        <path class="cls-3" d="M139.86,64.9c.05,2.99,1.96,4.23,4.18,4.23,1.58,0,2.54-.28,3.37-.63l.38,1.59c-.78.35-2.11.75-4.05.75-3.75,0-5.99-2.47-5.99-6.14s2.16-6.57,5.71-6.57c3.98,0,5.03,3.5,5.03,5.74,0,.45-.05.8-.08,1.03h-8.56ZM146.36,63.31c.03-1.41-.58-3.6-3.07-3.6-2.24,0-3.22,2.06-3.4,3.6h6.47Z"/>
        <path class="cls-3" d="M57.59,83.82h9.13v1.84h-6.94v5.64h6.42v1.81h-6.42v7.67h-2.19v-16.96Z"/>
        <path class="cls-3" d="M71.58,85.18c.03.75-.53,1.36-1.41,1.36-.78,0-1.33-.6-1.33-1.36s.58-1.38,1.38-1.38,1.36.6,1.36,1.38ZM69.11,100.78v-12.18h2.21v12.18h-2.21Z"/>
        <path class="cls-3" d="M75,91.9c0-1.26-.03-2.29-.1-3.3h1.96l.12,2.01h.05c.6-1.16,2.01-2.29,4.03-2.29,1.69,0,4.3,1.01,4.3,5.18v7.27h-2.21v-7.02c0-1.96-.73-3.6-2.82-3.6-1.46,0-2.59,1.03-2.97,2.26-.1.28-.15.65-.15,1.03v7.32h-2.21v-8.88Z"/>
        <path class="cls-3" d="M91.53,85.1v3.5h3.17v1.69h-3.17v6.57c0,1.51.43,2.37,1.66,2.37.58,0,1.01-.08,1.28-.15l.1,1.66c-.43.18-1.11.3-1.96.3-1.03,0-1.86-.33-2.39-.93-.63-.65-.86-1.74-.86-3.17v-6.64h-1.89v-1.69h1.89v-2.92l2.16-.58Z"/>
        <path class="cls-3" d="M98.27,95.09c.05,2.99,1.96,4.23,4.18,4.23,1.58,0,2.54-.28,3.37-.63l.38,1.59c-.78.35-2.11.75-4.05.75-3.75,0-5.99-2.47-5.99-6.14s2.16-6.57,5.71-6.57c3.98,0,5.03,3.5,5.03,5.74,0,.45-.05.8-.08,1.03h-8.56ZM104.77,93.51c.03-1.41-.58-3.6-3.07-3.6-2.24,0-3.22,2.06-3.4,3.6h6.47Z"/>
        <path class="cls-3" d="M118.33,100.32c-.58.3-1.86.71-3.5.71-3.67,0-6.06-2.49-6.06-6.21s2.57-6.47,6.54-6.47c1.31,0,2.47.33,3.07.63l-.5,1.71c-.53-.3-1.36-.58-2.57-.58-2.79,0-4.3,2.06-4.3,4.6,0,2.82,1.81,4.55,4.23,4.55,1.26,0,2.09-.33,2.72-.6l.38,1.66Z"/>
        <path class="cls-3" d="M120.92,82.91h2.21v7.6h.05c.35-.63.91-1.18,1.58-1.56.65-.38,1.43-.63,2.26-.63,1.64,0,4.25,1.01,4.25,5.21v7.25h-2.21v-7c0-1.96-.73-3.62-2.82-3.62-1.43,0-2.57,1.01-2.97,2.21-.13.3-.15.63-.15,1.06v7.35h-2.21v-17.87Z"/>
      </g>
    </g>
  </g>
</svg>