<?xml version="1.0" encoding="UTF-8"?>
<svg id="Layer_2" data-name="Layer 2" xmlns="http://www.w3.org/2000/svg" viewBox="0 0 188.72 162.25">
  <defs>
    <style>
      .cls-1 {
        fill: #dc9e29;
      }

      .cls-1, .cls-2 {
        fill-rule: evenodd;
      }

      .cls-3, .cls-2 {
        fill: #ffb900;
      }
    </style>
  </defs>
  <g id="OBJECTS">
    <g>
      <g>
        <path class="cls-3" d="M82.95,162.25l-5.81-3.31c19.29-12.63,37.82-9.64,38.56-9.65l.03,3c-.17,0-16.49-5.25-32.78,9.96Z"/>
        <path class="cls-3" d="M105.77,162.25l5.81-3.31c-19.29-12.63-37.82-9.64-38.56-9.65l-.03,3c.17,0,16.49-5.25,32.78,9.96Z"/>
        <g>
          <path class="cls-1" d="M24.95,22.28c6.94-6.21,13.83-15.12,26.66-22.28-9.93,1.42-24.62,10.19-26.66,22.28h0Z"/>
          <g>
            <g>
              <path class="cls-2" d="M34,22.73c-1.51.99-2.63,1.64-3.92,2.16-2.4.97-4.45,1.45-6.49,2.5-1.64.84-2.9,1.94-3.96,3.19-.97,1.14-1.66,2.15-2.16,3.21-1,2.12-1.68,5.3-1.35,7.57.85-1.23,1.65-2.19,2.51-3.07,1.33-1.35,2.68-2.36,4.18-3.28,1.09-.67,2.05-1.29,2.94-1.94,3.89-2.84,5.89-6.48,8.25-10.33h0Z"/>
              <path class="cls-1" d="M16.09,41.43c-.47-3.3,1.67-9.34,3.05-11.7.99-1.68,1.61-3.5,2.18-5.39,1-3.34,1.73-7.09,1.75-9.87-1.67,1.43-3.32,2.83-5.16,4.76-3.8,4.29-5.66,8.59-4.33,13.96.5,2.03,1.21,6.52,2.51,8.23h0Z"/>
            </g>
            <g>
              <path class="cls-2" d="M23.82,40.95c-1.27,1.22-2.24,2.06-3.39,2.8-2.16,1.38-4.08,2.2-5.86,3.59-1.43,1.11-2.44,2.4-3.22,3.81-.71,1.28-1.17,2.39-1.44,3.51-.54,2.24-.52,5.47.3,7.62.58-1.35,1.15-2.43,1.82-3.44,1.02-1.55,2.13-2.78,3.41-3.94.93-.85,1.74-1.63,2.48-2.42,3.22-3.46,4.41-7.36,5.91-11.54h0Z"/>
              <path class="cls-1" d="M10.19,62.37c-1.18-3.14-.37-9.41.49-11.95.61-1.81.84-3.71.99-5.65.27-3.43.18-7.23-.4-9.94-1.33,1.69-2.67,3.35-4.06,5.56-2.82,4.86-3.73,9.39-1.27,14.39.93,1.89,2.59,6.15,4.24,7.59h0Z"/>
            </g>
            <g>
              <path class="cls-2" d="M18.62,58.51c-.93,1.66-1.68,2.82-2.66,3.94-1.83,2.08-3.61,3.5-5.03,5.47-1.15,1.59-1.78,3.24-2.12,4.95-.31,1.56-.42,2.86-.32,4.13.21,2.52,1.35,5.93,2.98,7.97.15-1.59.38-2.9.75-4.16.55-1.93,1.32-3.55,2.28-5.15.7-1.17,1.3-2.22,1.82-3.26,2.25-4.58,2.16-9.05,2.31-13.89h0Z"/>
              <path class="cls-1" d="M11.49,85.06c-2.36-2.98-3.68-9.84-3.65-12.77.02-2.09-.4-4.16-.91-6.25-.91-3.71-2.33-7.69-3.9-10.39-.84,2.17-1.69,4.3-2.41,7.04-1.33,5.95-.72,10.99,3.66,15.57,1.66,1.73,4.93,5.75,7.2,6.8h0Z"/>
            </g>
            <g>
              <path class="cls-2" d="M17.85,78.44c-.55,1.84-1.03,3.13-1.75,4.43-1.36,2.42-2.81,4.18-3.78,6.43-.78,1.81-1.03,3.57-.97,5.34.05,1.61.25,2.94.65,4.17.8,2.47,2.76,5.65,4.88,7.36-.23-1.61-.29-2.96-.23-4.28.1-2.03.49-3.79,1.09-5.57.43-1.3.79-2.46,1.06-3.6,1.18-4.99.04-9.43-.94-14.29h0Z"/>
              <path class="cls-1" d="M16.91,106.26c-3.07-2.51-6.01-9.09-6.67-12.01-.47-2.09-1.38-4.07-2.39-6.06-1.78-3.52-4.15-7.21-6.36-9.59-.34,2.32-.69,4.61-.77,7.48.06,6.18,1.86,11.09,7.35,14.8,2.07,1.4,6.31,4.77,8.85,5.38h0Z"/>
            </g>
            <g>
              <path class="cls-2" d="M20.83,96.97c.08,2.04.04,3.5-.25,5.04-.55,2.87-1.43,5.09-1.64,7.67-.17,2.07.2,3.95.89,5.74.63,1.64,1.3,2.93,2.16,4.07,1.71,2.29,4.86,4.97,7.67,6.1-.81-1.58-1.35-2.94-1.75-4.31-.62-2.11-.83-4.02-.84-6-.01-1.45-.06-2.75-.18-3.99-.54-5.45-3.3-9.65-6.04-14.32h0Z"/>
              <path class="cls-1" d="M29.72,125.68c-4.08-1.67-9.46-7.53-11.18-10.33-1.23-2-2.87-3.75-4.63-5.49-3.09-3.07-6.86-6.15-10.01-7.95.47,2.48.92,4.92,1.86,7.87,2.25,6.3,5.86,10.79,12.87,12.98,2.65.83,8.24,3.04,11.09,2.92h0Z"/>
            </g>
            <g>
              <path class="cls-2" d="M30.48,114.53c.86,2.13,1.38,3.69,1.64,5.41.5,3.21.39,5.83,1.14,8.63.6,2.24,1.71,4.12,3.13,5.8,1.29,1.53,2.51,2.69,3.86,3.64,2.7,1.89,7.1,3.74,10.55,4.06-1.47-1.43-2.56-2.69-3.52-4.02-1.46-2.04-2.41-3.99-3.18-6.09-.56-1.53-1.1-2.89-1.7-4.16-2.64-5.6-7.2-9.18-11.91-13.27h0Z"/>
              <path class="cls-1" d="M50.89,142.13c-5.01-.5-13.01-5.02-15.92-7.45-2.08-1.73-4.51-3.08-7.05-4.37-4.49-2.28-9.7-4.38-13.76-5.29,1.44,2.47,2.84,4.91,4.97,7.75,4.8,5.96,10.38,9.59,18.74,9.73,3.16.05,10.01.65,13.02-.37h0Z"/>
            </g>
            <g>
              <path class="cls-2" d="M47.74,129.88c1.77,1.83,2.95,3.2,3.93,4.82,1.82,3.01,2.77,5.65,4.69,8.17,1.54,2.02,3.48,3.52,5.66,4.71,2,1.09,3.75,1.84,5.57,2.33,3.64.98,9.06,1.35,12.86.54-2.13-.92-3.81-1.81-5.36-2.81-2.37-1.53-4.17-3.15-5.84-4.98-1.22-1.33-2.33-2.5-3.49-3.56-5.07-4.67-11.36-6.72-18.02-9.2h0Z"/>
              <path class="cls-1" d="M80.58,150.47c-5.53,1.17-15.87-.67-19.94-2.11-2.91-1.03-6.03-1.56-9.26-2-5.7-.78-12.08-1.12-16.77-.69,2.53,1.96,5.01,3.93,8.41,6.03,7.51,4.31,14.91,6.07,23.86,3.43,3.39-1,10.91-2.67,13.7-4.67h0Z"/>
            </g>
          </g>
        </g>
        <g>
          <path class="cls-1" d="M163.78,22.28c-6.94-6.21-13.83-15.12-26.66-22.28,9.93,1.42,24.62,10.19,26.66,22.28h0Z"/>
          <g>
            <g>
              <path class="cls-2" d="M154.72,22.73c1.51.99,2.63,1.64,3.92,2.16,2.4.97,4.45,1.45,6.49,2.5,1.64.84,2.9,1.94,3.96,3.19.97,1.14,1.66,2.15,2.16,3.21,1,2.12,1.68,5.3,1.35,7.57-.85-1.23-1.65-2.19-2.51-3.07-1.33-1.35-2.68-2.36-4.18-3.28-1.09-.67-2.05-1.29-2.94-1.94-3.89-2.84-5.89-6.48-8.25-10.33h0Z"/>
              <path class="cls-1" d="M172.63,41.43c.47-3.3-1.67-9.34-3.05-11.7-.99-1.68-1.61-3.5-2.18-5.39-1-3.34-1.73-7.09-1.75-9.87,1.67,1.43,3.32,2.83,5.16,4.76,3.8,4.29,5.66,8.59,4.33,13.96-.5,2.03-1.21,6.52-2.51,8.23h0Z"/>
            </g>
            <g>
              <path class="cls-2" d="M164.91,40.95c1.27,1.22,2.24,2.06,3.39,2.8,2.16,1.38,4.08,2.2,5.86,3.59,1.43,1.11,2.44,2.4,3.22,3.81.71,1.28,1.17,2.39,1.44,3.51.54,2.24.52,5.47-.3,7.62-.58-1.35-1.15-2.43-1.82-3.44-1.02-1.55-2.13-2.78-3.41-3.94-.93-.85-1.74-1.63-2.48-2.42-3.22-3.46-4.41-7.36-5.91-11.54h0Z"/>
              <path class="cls-1" d="M178.53,62.37c1.18-3.14.37-9.41-.49-11.95-.61-1.81-.84-3.71-.99-5.65-.27-3.43-.18-7.23.4-9.94,1.33,1.69,2.67,3.35,4.06,5.56,2.82,4.86,3.73,9.39,1.27,14.39-.93,1.89-2.59,6.15-4.24,7.59h0Z"/>
            </g>
            <g>
              <path class="cls-2" d="M170.1,58.51c.93,1.66,1.68,2.82,2.66,3.94,1.83,2.08,3.61,3.5,5.03,5.47,1.15,1.59,1.78,3.24,2.12,4.95.31,1.56.42,2.86.32,4.13-.21,2.52-1.35,5.93-2.98,7.97-.15-1.59-.38-2.9-.75-4.16-.55-1.93-1.32-3.55-2.28-5.15-.7-1.17-1.3-2.22-1.82-3.26-2.25-4.58-2.16-9.05-2.31-13.89h0Z"/>
              <path class="cls-1" d="M177.24,85.06c2.36-2.98,3.68-9.84,3.65-12.77-.02-2.09.4-4.16.91-6.25.91-3.71,2.33-7.69,3.9-10.39.84,2.17,1.69,4.3,2.41,7.04,1.33,5.95.72,10.99-3.66,15.57-1.66,1.73-4.93,5.75-7.2,6.8h0Z"/>
            </g>
            <g>
              <path class="cls-2" d="M170.88,78.44c.55,1.84,1.03,3.13,1.75,4.43,1.36,2.42,2.81,4.18,3.78,6.43.78,1.81,1.03,3.57.97,5.34-.05,1.61-.25,2.94-.65,4.17-.8,2.47-2.76,5.65-4.88,7.36.23-1.61.29-2.96.23-4.28-.1-2.03-.49-3.79-1.09-5.57-.43-1.3-.79-2.46-1.06-3.6-1.18-4.99-.04-9.43.94-14.29h0Z"/>
              <path class="cls-1" d="M171.81,106.26c3.07-2.51,6.01-9.09,6.67-12.01.47-2.09,1.38-4.07,2.39-6.06,1.78-3.52,4.15-7.21,6.36-9.59.34,2.32.69,4.61.77,7.48-.06,6.18-1.86,11.09-7.35,14.8-2.07,1.4-6.31,4.77-8.85,5.38h0Z"/>
            </g>
            <g>
              <path class="cls-2" d="M167.9,96.97c-.08,2.04-.04,3.5.25,5.04.55,2.87,1.43,5.09,1.64,7.67.17,2.07-.2,3.95-.89,5.74-.63,1.64-1.3,2.93-2.16,4.07-1.71,2.29-4.86,4.97-7.67,6.1.81-1.58,1.35-2.94,1.75-4.31.62-2.11.83-4.02.84-6,.01-1.45.06-2.75.18-3.99.54-5.45,3.3-9.65,6.04-14.32h0Z"/>
              <path class="cls-1" d="M159,125.68c4.08-1.67,9.46-7.53,11.18-10.33,1.23-2,2.87-3.75,4.63-5.49,3.09-3.07,6.86-6.15,10.01-7.95-.47,2.48-.92,4.92-1.86,7.87-2.25,6.3-5.86,10.79-12.87,12.98-2.65.83-8.24,3.04-11.09,2.92h0Z"/>
            </g>
            <g>
              <path class="cls-2" d="M158.24,114.53c-.86,2.13-1.38,3.69-1.64,5.41-.5,3.21-.39,5.83-1.14,8.63-.6,2.24-1.71,4.12-3.13,5.8-1.29,1.53-2.51,2.69-3.86,3.64-2.7,1.89-7.1,3.74-10.55,4.06,1.47-1.43,2.56-2.69,3.52-4.02,1.46-2.04,2.41-3.99,3.18-6.09.56-1.53,1.1-2.89,1.7-4.16,2.64-5.6,7.2-9.18,11.91-13.27h0Z"/>
              <path class="cls-1" d="M137.83,142.13c5.01-.5,13.01-5.02,15.92-7.45,2.08-1.73,4.51-3.08,7.05-4.37,4.49-2.28,9.7-4.38,13.76-5.29-1.44,2.47-2.84,4.91-4.97,7.75-4.8,5.96-10.38,9.59-18.74,9.73-3.16.05-10.01.65-13.02-.37h0Z"/>
            </g>
            <g>
              <path class="cls-2" d="M140.99,129.88c-1.77,1.83-2.95,3.2-3.93,4.82-1.82,3.01-2.77,5.65-4.69,8.17-1.54,2.02-3.48,3.52-5.66,4.71-2,1.09-3.75,1.84-5.57,2.33-3.64.98-9.06,1.35-12.86.54,2.13-.92,3.81-1.81,5.36-2.81,2.37-1.53,4.17-3.15,5.84-4.98,1.22-1.33,2.33-2.5,3.49-3.56,5.07-4.67,11.36-6.72,18.02-9.2h0Z"/>
              <path class="cls-1" d="M108.14,150.47c5.53,1.17,15.87-.67,19.94-2.11,2.91-1.03,6.03-1.56,9.26-2,5.7-.78,12.08-1.12,16.77-.69-2.53,1.96-5.01,3.93-8.41,6.03-7.51,4.31-14.91,6.07-23.86,3.43-3.39-1-10.91-2.67-13.7-4.67h0Z"/>
            </g>
          </g>
        </g>
      </g>
      <g>
        <path class="cls-3" d="M29.88,64.88l-1.63,4.93h-2.09l5.32-15.66h2.44l5.34,15.66h-2.16l-1.67-4.93h-5.55ZM35.01,63.3l-1.53-4.51c-.35-1.02-.58-1.95-.81-2.86h-.05c-.23.93-.49,1.88-.79,2.83l-1.53,4.53h4.72Z"/>
        <path class="cls-3" d="M41.54,69.81v-9.69h-1.58v-1.56h1.58v-.53c0-1.58.35-3.02,1.3-3.93.77-.74,1.79-1.05,2.74-1.05.72,0,1.35.16,1.74.33l-.28,1.58c-.3-.14-.72-.26-1.3-.26-1.74,0-2.18,1.53-2.18,3.25v.6h2.72v1.56h-2.72v9.69h-2.02Z"/>
        <path class="cls-3" d="M48.12,62.07c0-1.33-.02-2.46-.09-3.51h1.79l.07,2.21h.09c.51-1.51,1.74-2.46,3.11-2.46.23,0,.39.02.58.07v1.93c-.21-.05-.42-.07-.7-.07-1.44,0-2.46,1.09-2.74,2.63-.05.28-.09.6-.09.95v6h-2.02v-7.74Z"/>
        <path class="cls-3" d="M58.08,55.4c.02.7-.49,1.25-1.3,1.25-.72,0-1.23-.56-1.23-1.25s.54-1.28,1.28-1.28,1.25.56,1.25,1.28ZM55.81,69.81v-11.25h2.04v11.25h-2.04Z"/>
        <path class="cls-3" d="M69.26,69.39c-.53.28-1.72.65-3.23.65-3.39,0-5.6-2.3-5.6-5.74s2.37-5.97,6.04-5.97c1.21,0,2.28.3,2.84.58l-.46,1.58c-.49-.28-1.25-.53-2.37-.53-2.58,0-3.97,1.91-3.97,4.25,0,2.6,1.67,4.21,3.9,4.21,1.16,0,1.93-.3,2.51-.56l.35,1.53Z"/>
        <path class="cls-3" d="M77.88,69.81l-.16-1.42h-.07c-.63.88-1.84,1.67-3.44,1.67-2.28,0-3.44-1.6-3.44-3.23,0-2.72,2.42-4.21,6.76-4.18v-.23c0-.93-.26-2.6-2.56-2.6-1.05,0-2.14.33-2.93.84l-.46-1.35c.93-.6,2.28-1,3.69-1,3.44,0,4.28,2.35,4.28,4.6v4.21c0,.98.05,1.93.19,2.7h-1.86ZM77.58,64.07c-2.23-.05-4.76.35-4.76,2.53,0,1.32.88,1.95,1.93,1.95,1.46,0,2.39-.93,2.72-1.88.07-.21.12-.44.12-.65v-1.95Z"/>
        <path class="cls-3" d="M87.57,67.35c.91.56,2.23,1.02,3.62,1.02,2.07,0,3.28-1.09,3.28-2.67,0-1.46-.84-2.3-2.95-3.11-2.56-.91-4.14-2.23-4.14-4.44,0-2.44,2.02-4.25,5.07-4.25,1.6,0,2.77.37,3.46.77l-.56,1.65c-.51-.28-1.56-.74-2.97-.74-2.14,0-2.95,1.28-2.95,2.35,0,1.46.95,2.18,3.11,3.02,2.65,1.02,4,2.3,4,4.6,0,2.42-1.79,4.51-5.48,4.51-1.51,0-3.16-.44-4-1l.51-1.7Z"/>
        <path class="cls-3" d="M101.62,55.33v3.23h2.93v1.56h-2.93v6.07c0,1.39.39,2.18,1.53,2.18.54,0,.93-.07,1.19-.14l.09,1.53c-.39.16-1.02.28-1.81.28-.95,0-1.72-.3-2.21-.86-.58-.6-.79-1.6-.79-2.93v-6.13h-1.74v-1.56h1.74v-2.7l2-.53Z"/>
        <path class="cls-3" d="M113.08,69.81l-.16-1.42h-.07c-.63.88-1.84,1.67-3.44,1.67-2.28,0-3.44-1.6-3.44-3.23,0-2.72,2.42-4.21,6.76-4.18v-.23c0-.93-.26-2.6-2.56-2.6-1.05,0-2.14.33-2.93.84l-.46-1.35c.93-.6,2.28-1,3.69-1,3.44,0,4.28,2.35,4.28,4.6v4.21c0,.98.05,1.93.19,2.7h-1.86ZM112.77,64.07c-2.23-.05-4.76.35-4.76,2.53,0,1.32.88,1.95,1.93,1.95,1.46,0,2.39-.93,2.72-1.88.07-.21.12-.44.12-.65v-1.95Z"/>
        <path class="cls-3" d="M118.05,62.07c0-1.33-.02-2.46-.09-3.51h1.79l.07,2.21h.09c.51-1.51,1.74-2.46,3.11-2.46.23,0,.39.02.58.07v1.93c-.21-.05-.42-.07-.7-.07-1.44,0-2.46,1.09-2.74,2.63-.05.28-.09.6-.09.95v6h-2.02v-7.74Z"/>
        <path class="cls-3" d="M128.67,55.33v3.23h2.93v1.56h-2.93v6.07c0,1.39.39,2.18,1.53,2.18.54,0,.93-.07,1.19-.14l.09,1.53c-.39.16-1.02.28-1.81.28-.95,0-1.72-.3-2.21-.86-.58-.6-.79-1.6-.79-2.93v-6.13h-1.74v-1.56h1.74v-2.7l2-.53Z"/>
        <path class="cls-3" d="M143.3,66.74c0,1.16.02,2.18.09,3.07h-1.81l-.12-1.84h-.05c-.53.91-1.72,2.09-3.72,2.09-1.77,0-3.88-.98-3.88-4.93v-6.58h2.04v6.23c0,2.14.65,3.58,2.51,3.58,1.37,0,2.32-.95,2.7-1.86.12-.3.19-.67.19-1.05v-6.9h2.04v8.18Z"/>
        <path class="cls-3" d="M146.69,62.24c0-1.44-.05-2.6-.09-3.67h1.84l.09,1.93h.05c.84-1.37,2.16-2.18,4-2.18,2.72,0,4.76,2.3,4.76,5.72,0,4.04-2.46,6.04-5.11,6.04-1.49,0-2.79-.65-3.46-1.77h-.05v6.11h-2.02v-12.18ZM148.71,65.23c0,.3.05.58.09.84.37,1.42,1.6,2.39,3.07,2.39,2.16,0,3.42-1.77,3.42-4.35,0-2.25-1.19-4.18-3.35-4.18-1.39,0-2.7,1-3.09,2.53-.07.26-.14.56-.14.84v1.93Z"/>
        <path class="cls-3" d="M53.17,90.35h-6.09v5.65h6.79v1.7h-8.81v-15.66h8.46v1.7h-6.44v4.95h6.09v1.67Z"/>
        <path class="cls-3" d="M64.34,97.27c-.53.28-1.72.65-3.23.65-3.39,0-5.6-2.3-5.6-5.74s2.37-5.97,6.04-5.97c1.21,0,2.28.3,2.84.58l-.46,1.58c-.49-.28-1.25-.53-2.37-.53-2.58,0-3.97,1.91-3.97,4.25,0,2.6,1.67,4.21,3.9,4.21,1.16,0,1.93-.3,2.51-.56l.35,1.53Z"/>
        <path class="cls-3" d="M76.78,91.97c0,4.16-2.88,5.97-5.6,5.97-3.04,0-5.39-2.23-5.39-5.79,0-3.76,2.46-5.97,5.58-5.97s5.41,2.35,5.41,5.79ZM67.85,92.09c0,2.46,1.42,4.32,3.42,4.32s3.42-1.84,3.42-4.37c0-1.91-.95-4.32-3.37-4.32s-3.46,2.23-3.46,4.37Z"/>
        <path class="cls-3" d="M79.07,95.6c.6.4,1.67.81,2.7.81,1.49,0,2.18-.74,2.18-1.67,0-.98-.58-1.51-2.09-2.07-2.02-.72-2.97-1.84-2.97-3.18,0-1.81,1.46-3.3,3.88-3.3,1.14,0,2.14.33,2.77.7l-.51,1.49c-.44-.28-1.25-.65-2.3-.65-1.21,0-1.88.7-1.88,1.53,0,.93.67,1.35,2.14,1.91,1.95.74,2.95,1.72,2.95,3.39,0,1.98-1.53,3.37-4.21,3.37-1.23,0-2.37-.3-3.16-.77l.51-1.56Z"/>
        <path class="cls-3" d="M89.3,86.44l2.46,6.65c.26.74.53,1.63.72,2.3h.05c.21-.67.44-1.53.72-2.35l2.23-6.6h2.16l-3.07,8.02c-1.46,3.86-2.46,5.83-3.86,7.04-1,.88-2,1.23-2.51,1.32l-.51-1.72c.51-.16,1.18-.49,1.79-1,.56-.44,1.25-1.23,1.72-2.28.09-.21.16-.37.16-.49s-.05-.28-.14-.53l-4.16-10.37h2.23Z"/>
        <path class="cls-3" d="M99.08,95.6c.6.4,1.67.81,2.7.81,1.49,0,2.18-.74,2.18-1.67,0-.98-.58-1.51-2.09-2.07-2.02-.72-2.97-1.84-2.97-3.18,0-1.81,1.46-3.3,3.88-3.3,1.14,0,2.14.33,2.77.7l-.51,1.49c-.44-.28-1.25-.65-2.3-.65-1.21,0-1.88.7-1.88,1.53,0,.93.67,1.35,2.14,1.91,1.95.74,2.95,1.72,2.95,3.39,0,1.98-1.53,3.37-4.21,3.37-1.23,0-2.37-.3-3.16-.77l.51-1.56Z"/>
        <path class="cls-3" d="M111.02,83.21v3.23h2.93v1.56h-2.93v6.07c0,1.39.39,2.18,1.53,2.18.54,0,.93-.07,1.19-.14l.09,1.53c-.39.16-1.02.28-1.81.28-.95,0-1.72-.3-2.21-.86-.58-.6-.79-1.6-.79-2.93v-6.13h-1.74v-1.56h1.74v-2.7l2-.53Z"/>
        <path class="cls-3" d="M117.25,92.44c.05,2.77,1.81,3.9,3.86,3.9,1.46,0,2.35-.26,3.11-.58l.35,1.46c-.72.33-1.95.7-3.74.7-3.46,0-5.53-2.28-5.53-5.67s2-6.07,5.28-6.07c3.67,0,4.65,3.23,4.65,5.3,0,.42-.05.74-.07.95h-7.9ZM123.24,90.98c.02-1.3-.54-3.32-2.83-3.32-2.07,0-2.97,1.91-3.14,3.32h5.97Z"/>
        <path class="cls-3" d="M127.75,89.49c0-1.16-.02-2.12-.09-3.04h1.79l.09,1.81h.07c.63-1.07,1.67-2.07,3.53-2.07,1.53,0,2.7.93,3.18,2.25h.05c.35-.63.79-1.12,1.25-1.46.67-.51,1.42-.79,2.49-.79,1.49,0,3.7.98,3.7,4.88v6.62h-2v-6.37c0-2.16-.79-3.46-2.44-3.46-1.16,0-2.07.86-2.42,1.86-.09.28-.16.65-.16,1.02v6.95h-2v-6.74c0-1.79-.79-3.09-2.35-3.09-1.28,0-2.21,1.02-2.53,2.04-.12.3-.16.65-.16,1v6.79h-2v-8.2Z"/>
      </g>
    </g>
  </g>
</svg>