<?xml version="1.0" encoding="UTF-8"?>
<svg id="Layer_2" data-name="Layer 2" xmlns="http://www.w3.org/2000/svg" viewBox="0 0 188.72 162.25">
  <defs>
    <style>
      .cls-1 {
        fill: #dc9e29;
      }

      .cls-1, .cls-2 {
        fill-rule: evenodd;
      }

      .cls-3, .cls-2 {
        fill: #ffb900;
      }
    </style>
  </defs>
  <g id="OBJECTS">
    <g>
      <g>
        <path class="cls-3" d="M82.95,162.25l-5.81-3.31c19.29-12.63,37.82-9.64,38.56-9.65l.03,3c-.17,0-16.49-5.25-32.78,9.96Z"/>
        <path class="cls-3" d="M105.77,162.25l5.81-3.31c-19.29-12.63-37.82-9.64-38.56-9.65l-.03,3c.17,0,16.49-5.25,32.78,9.96Z"/>
        <g>
          <path class="cls-1" d="M24.95,22.28c6.94-6.21,13.83-15.12,26.66-22.28-9.93,1.42-24.62,10.19-26.66,22.28h0Z"/>
          <g>
            <g>
              <path class="cls-2" d="M34,22.73c-1.51.99-2.63,1.64-3.92,2.16-2.4.97-4.45,1.45-6.49,2.5-1.64.84-2.9,1.94-3.96,3.19-.97,1.14-1.66,2.15-2.16,3.21-1,2.12-1.68,5.3-1.35,7.57.85-1.23,1.65-2.19,2.51-3.07,1.33-1.35,2.68-2.36,4.18-3.28,1.09-.67,2.05-1.29,2.94-1.94,3.89-2.84,5.89-6.48,8.25-10.33h0Z"/>
              <path class="cls-1" d="M16.09,41.43c-.47-3.3,1.67-9.34,3.05-11.7.99-1.68,1.61-3.5,2.18-5.39,1-3.34,1.73-7.09,1.75-9.87-1.67,1.43-3.32,2.83-5.16,4.76-3.8,4.29-5.66,8.59-4.33,13.96.5,2.03,1.21,6.52,2.51,8.23h0Z"/>
            </g>
            <g>
              <path class="cls-2" d="M23.82,40.95c-1.27,1.22-2.24,2.06-3.39,2.8-2.16,1.38-4.08,2.2-5.86,3.59-1.43,1.11-2.44,2.4-3.22,3.81-.71,1.28-1.17,2.39-1.44,3.51-.54,2.24-.52,5.47.3,7.62.58-1.35,1.15-2.43,1.82-3.44,1.02-1.55,2.13-2.78,3.41-3.94.93-.85,1.74-1.63,2.48-2.42,3.22-3.46,4.41-7.36,5.91-11.54h0Z"/>
              <path class="cls-1" d="M10.19,62.37c-1.18-3.14-.37-9.41.49-11.95.61-1.81.84-3.71.99-5.65.27-3.43.18-7.23-.4-9.94-1.33,1.69-2.67,3.35-4.06,5.56-2.82,4.86-3.73,9.39-1.27,14.39.93,1.89,2.59,6.15,4.24,7.59h0Z"/>
            </g>
            <g>
              <path class="cls-2" d="M18.62,58.51c-.93,1.66-1.68,2.82-2.66,3.94-1.83,2.08-3.61,3.5-5.03,5.47-1.15,1.59-1.78,3.24-2.12,4.95-.31,1.56-.42,2.86-.32,4.13.21,2.52,1.35,5.93,2.98,7.97.15-1.59.38-2.9.75-4.16.55-1.93,1.32-3.55,2.28-5.15.7-1.17,1.3-2.22,1.82-3.26,2.25-4.58,2.16-9.05,2.31-13.89h0Z"/>
              <path class="cls-1" d="M11.49,85.06c-2.36-2.98-3.68-9.84-3.65-12.77.02-2.09-.4-4.16-.91-6.25-.91-3.71-2.33-7.69-3.9-10.39-.84,2.17-1.69,4.3-2.41,7.04-1.33,5.95-.72,10.99,3.66,15.57,1.66,1.73,4.93,5.75,7.2,6.8h0Z"/>
            </g>
            <g>
              <path class="cls-2" d="M17.85,78.44c-.55,1.84-1.03,3.13-1.75,4.43-1.36,2.42-2.81,4.18-3.78,6.43-.78,1.81-1.03,3.57-.97,5.34.05,1.61.25,2.94.65,4.17.8,2.47,2.76,5.65,4.88,7.36-.23-1.61-.29-2.96-.23-4.28.1-2.03.49-3.79,1.09-5.57.43-1.3.79-2.46,1.06-3.6,1.18-4.99.04-9.43-.94-14.29h0Z"/>
              <path class="cls-1" d="M16.91,106.26c-3.07-2.51-6.01-9.09-6.67-12.01-.47-2.09-1.38-4.07-2.39-6.06-1.78-3.52-4.15-7.21-6.36-9.59-.34,2.32-.69,4.61-.77,7.48.06,6.18,1.86,11.09,7.35,14.8,2.07,1.4,6.31,4.77,8.85,5.38h0Z"/>
            </g>
            <g>
              <path class="cls-2" d="M20.83,96.97c.08,2.04.04,3.5-.25,5.04-.55,2.87-1.43,5.09-1.64,7.67-.17,2.07.2,3.95.89,5.74.63,1.64,1.3,2.93,2.16,4.07,1.71,2.29,4.86,4.97,7.67,6.1-.81-1.58-1.35-2.94-1.75-4.31-.62-2.11-.83-4.02-.84-6-.01-1.45-.06-2.75-.18-3.99-.54-5.45-3.3-9.65-6.04-14.32h0Z"/>
              <path class="cls-1" d="M29.72,125.68c-4.08-1.67-9.46-7.53-11.18-10.33-1.23-2-2.87-3.75-4.63-5.49-3.09-3.07-6.86-6.15-10.01-7.95.47,2.48.92,4.92,1.86,7.87,2.25,6.3,5.86,10.79,12.87,12.98,2.65.83,8.24,3.04,11.09,2.92h0Z"/>
            </g>
            <g>
              <path class="cls-2" d="M30.48,114.53c.86,2.13,1.38,3.69,1.64,5.41.5,3.21.39,5.83,1.14,8.63.6,2.24,1.71,4.12,3.13,5.8,1.29,1.53,2.51,2.69,3.86,3.64,2.7,1.89,7.1,3.74,10.55,4.06-1.47-1.43-2.56-2.69-3.52-4.02-1.46-2.04-2.41-3.99-3.18-6.09-.56-1.53-1.1-2.89-1.7-4.16-2.64-5.6-7.2-9.18-11.91-13.27h0Z"/>
              <path class="cls-1" d="M50.89,142.13c-5.01-.5-13.01-5.02-15.92-7.45-2.08-1.73-4.51-3.08-7.05-4.37-4.49-2.28-9.7-4.38-13.76-5.29,1.44,2.47,2.84,4.91,4.97,7.75,4.8,5.96,10.38,9.59,18.74,9.73,3.16.05,10.01.65,13.02-.37h0Z"/>
            </g>
            <g>
              <path class="cls-2" d="M47.74,129.88c1.77,1.83,2.95,3.2,3.93,4.82,1.82,3.01,2.77,5.65,4.69,8.17,1.54,2.02,3.48,3.52,5.66,4.71,2,1.09,3.75,1.84,5.57,2.33,3.64.98,9.06,1.35,12.86.54-2.13-.92-3.81-1.81-5.36-2.81-2.37-1.53-4.17-3.15-5.84-4.98-1.22-1.33-2.33-2.5-3.49-3.56-5.07-4.67-11.36-6.72-18.02-9.2h0Z"/>
              <path class="cls-1" d="M80.58,150.47c-5.53,1.17-15.87-.67-19.94-2.11-2.91-1.03-6.03-1.56-9.26-2-5.7-.78-12.08-1.12-16.77-.69,2.53,1.96,5.01,3.93,8.41,6.03,7.51,4.31,14.91,6.07,23.86,3.43,3.39-1,10.91-2.67,13.7-4.67h0Z"/>
            </g>
          </g>
        </g>
        <g>
          <path class="cls-1" d="M163.78,22.28c-6.94-6.21-13.83-15.12-26.66-22.28,9.93,1.42,24.62,10.19,26.66,22.28h0Z"/>
          <g>
            <g>
              <path class="cls-2" d="M154.72,22.73c1.51.99,2.63,1.64,3.92,2.16,2.4.97,4.45,1.45,6.49,2.5,1.64.84,2.9,1.94,3.96,3.19.97,1.14,1.66,2.15,2.16,3.21,1,2.12,1.68,5.3,1.35,7.57-.85-1.23-1.65-2.19-2.51-3.07-1.33-1.35-2.68-2.36-4.18-3.28-1.09-.67-2.05-1.29-2.94-1.94-3.89-2.84-5.89-6.48-8.25-10.33h0Z"/>
              <path class="cls-1" d="M172.63,41.43c.47-3.3-1.67-9.34-3.05-11.7-.99-1.68-1.61-3.5-2.18-5.39-1-3.34-1.73-7.09-1.75-9.87,1.67,1.43,3.32,2.83,5.16,4.76,3.8,4.29,5.66,8.59,4.33,13.96-.5,2.03-1.21,6.52-2.51,8.23h0Z"/>
            </g>
            <g>
              <path class="cls-2" d="M164.91,40.95c1.27,1.22,2.24,2.06,3.39,2.8,2.16,1.38,4.08,2.2,5.86,3.59,1.43,1.11,2.44,2.4,3.22,3.81.71,1.28,1.17,2.39,1.44,3.51.54,2.24.52,5.47-.3,7.62-.58-1.35-1.15-2.43-1.82-3.44-1.02-1.55-2.13-2.78-3.41-3.94-.93-.85-1.74-1.63-2.48-2.42-3.22-3.46-4.41-7.36-5.91-11.54h0Z"/>
              <path class="cls-1" d="M178.53,62.37c1.18-3.14.37-9.41-.49-11.95-.61-1.81-.84-3.71-.99-5.65-.27-3.43-.18-7.23.4-9.94,1.33,1.69,2.67,3.35,4.06,5.56,2.82,4.86,3.73,9.39,1.27,14.39-.93,1.89-2.59,6.15-4.24,7.59h0Z"/>
            </g>
            <g>
              <path class="cls-2" d="M170.1,58.51c.93,1.66,1.68,2.82,2.66,3.94,1.83,2.08,3.61,3.5,5.03,5.47,1.15,1.59,1.78,3.24,2.12,4.95.31,1.56.42,2.86.32,4.13-.21,2.52-1.35,5.93-2.98,7.97-.15-1.59-.38-2.9-.75-4.16-.55-1.93-1.32-3.55-2.28-5.15-.7-1.17-1.3-2.22-1.82-3.26-2.25-4.58-2.16-9.05-2.31-13.89h0Z"/>
              <path class="cls-1" d="M177.24,85.06c2.36-2.98,3.68-9.84,3.65-12.77-.02-2.09.4-4.16.91-6.25.91-3.71,2.33-7.69,3.9-10.39.84,2.17,1.69,4.3,2.41,7.04,1.33,5.95.72,10.99-3.66,15.57-1.66,1.73-4.93,5.75-7.2,6.8h0Z"/>
            </g>
            <g>
              <path class="cls-2" d="M170.88,78.44c.55,1.84,1.03,3.13,1.75,4.43,1.36,2.42,2.81,4.18,3.78,6.43.78,1.81,1.03,3.57.97,5.34-.05,1.61-.25,2.94-.65,4.17-.8,2.47-2.76,5.65-4.88,7.36.23-1.61.29-2.96.23-4.28-.1-2.03-.49-3.79-1.09-5.57-.43-1.3-.79-2.46-1.06-3.6-1.18-4.99-.04-9.43.94-14.29h0Z"/>
              <path class="cls-1" d="M171.81,106.26c3.07-2.51,6.01-9.09,6.67-12.01.47-2.09,1.38-4.07,2.39-6.06,1.78-3.52,4.15-7.21,6.36-9.59.34,2.32.69,4.61.77,7.48-.06,6.18-1.86,11.09-7.35,14.8-2.07,1.4-6.31,4.77-8.85,5.38h0Z"/>
            </g>
            <g>
              <path class="cls-2" d="M167.9,96.97c-.08,2.04-.04,3.5.25,5.04.55,2.87,1.43,5.09,1.64,7.67.17,2.07-.2,3.95-.89,5.74-.63,1.64-1.3,2.93-2.16,4.07-1.71,2.29-4.86,4.97-7.67,6.1.81-1.58,1.35-2.94,1.75-4.31.62-2.11.83-4.02.84-6,.01-1.45.06-2.75.18-3.99.54-5.45,3.3-9.65,6.04-14.32h0Z"/>
              <path class="cls-1" d="M159,125.68c4.08-1.67,9.46-7.53,11.18-10.33,1.23-2,2.87-3.75,4.63-5.49,3.09-3.07,6.86-6.15,10.01-7.95-.47,2.48-.92,4.92-1.86,7.87-2.25,6.3-5.86,10.79-12.87,12.98-2.65.83-8.24,3.04-11.09,2.92h0Z"/>
            </g>
            <g>
              <path class="cls-2" d="M158.24,114.53c-.86,2.13-1.38,3.69-1.64,5.41-.5,3.21-.39,5.83-1.14,8.63-.6,2.24-1.71,4.12-3.13,5.8-1.29,1.53-2.51,2.69-3.86,3.64-2.7,1.89-7.1,3.74-10.55,4.06,1.47-1.43,2.56-2.69,3.52-4.02,1.46-2.04,2.41-3.99,3.18-6.09.56-1.53,1.1-2.89,1.7-4.16,2.64-5.6,7.2-9.18,11.91-13.27h0Z"/>
              <path class="cls-1" d="M137.83,142.13c5.01-.5,13.01-5.02,15.92-7.45,2.08-1.73,4.51-3.08,7.05-4.37,4.49-2.28,9.7-4.38,13.76-5.29-1.44,2.47-2.84,4.91-4.97,7.75-4.8,5.96-10.38,9.59-18.74,9.73-3.16.05-10.01.65-13.02-.37h0Z"/>
            </g>
            <g>
              <path class="cls-2" d="M140.99,129.88c-1.77,1.83-2.95,3.2-3.93,4.82-1.82,3.01-2.77,5.65-4.69,8.17-1.54,2.02-3.48,3.52-5.66,4.71-2,1.09-3.75,1.84-5.57,2.33-3.64.98-9.06,1.35-12.86.54,2.13-.92,3.81-1.81,5.36-2.81,2.37-1.53,4.17-3.15,5.84-4.98,1.22-1.33,2.33-2.5,3.49-3.56,5.07-4.67,11.36-6.72,18.02-9.2h0Z"/>
              <path class="cls-1" d="M108.14,150.47c5.53,1.17,15.87-.67,19.94-2.11,2.91-1.03,6.03-1.56,9.26-2,5.7-.78,12.08-1.12,16.77-.69-2.53,1.96-5.01,3.93-8.41,6.03-7.51,4.31-14.91,6.07-23.86,3.43-3.39-1-10.91-2.67-13.7-4.67h0Z"/>
            </g>
          </g>
        </g>
      </g>
      <g>
        <path class="cls-3" d="M32.16,63.82l-1.62,4.91h-2.08l5.3-15.61h2.43l5.33,15.61h-2.15l-1.67-4.91h-5.54ZM37.27,62.24l-1.53-4.49c-.35-1.02-.58-1.95-.81-2.85h-.05c-.23.93-.49,1.88-.79,2.83l-1.53,4.52h4.7Z"/>
        <path class="cls-3" d="M45.82,53.11v15.61h-2.02v-15.61h2.02Z"/>
        <path class="cls-3" d="M56.27,53.11v15.61h-2.02v-15.61h2.02Z"/>
        <path class="cls-3" d="M59.95,60.55c0-1.16-.02-2.11-.09-3.03h1.81l.12,1.85h.05c.56-1.07,1.85-2.11,3.71-2.11,1.55,0,3.96.93,3.96,4.77v6.69h-2.04v-6.46c0-1.81-.67-3.31-2.59-3.31-1.34,0-2.39.95-2.73,2.08-.09.25-.14.6-.14.95v6.74h-2.04v-8.18Z"/>
        <path class="cls-3" d="M73.29,57.51l2.2,6.3c.37,1.02.67,1.95.9,2.87h.07c.25-.93.58-1.85.95-2.87l2.18-6.3h2.13l-4.4,11.21h-1.95l-4.26-11.21h2.18Z"/>
        <path class="cls-3" d="M84.55,63.49c.05,2.76,1.81,3.89,3.85,3.89,1.46,0,2.34-.25,3.1-.58l.35,1.46c-.72.32-1.95.69-3.73.69-3.45,0-5.51-2.27-5.51-5.65s1.99-6.05,5.26-6.05c3.66,0,4.63,3.22,4.63,5.28,0,.42-.05.74-.07.95h-7.88ZM90.52,62.03c.02-1.3-.53-3.31-2.83-3.31-2.06,0-2.96,1.9-3.13,3.31h5.95Z"/>
        <path class="cls-3" d="M94.74,66.64c.6.39,1.67.81,2.69.81,1.48,0,2.18-.74,2.18-1.67,0-.97-.58-1.51-2.08-2.06-2.02-.72-2.96-1.83-2.96-3.17,0-1.81,1.46-3.29,3.87-3.29,1.14,0,2.13.32,2.76.7l-.51,1.48c-.44-.28-1.25-.65-2.29-.65-1.2,0-1.88.69-1.88,1.53,0,.93.67,1.34,2.13,1.9,1.95.74,2.94,1.71,2.94,3.38,0,1.97-1.53,3.36-4.19,3.36-1.23,0-2.36-.3-3.15-.76l.51-1.55Z"/>
        <path class="cls-3" d="M106.64,54.29v3.22h2.92v1.55h-2.92v6.05c0,1.39.39,2.18,1.53,2.18.53,0,.93-.07,1.18-.14l.09,1.53c-.39.16-1.02.28-1.81.28-.95,0-1.71-.3-2.2-.86-.58-.6-.79-1.6-.79-2.92v-6.12h-1.74v-1.55h1.74v-2.69l1.99-.53Z"/>
        <path class="cls-3" d="M111.85,60.55c0-1.16-.02-2.11-.09-3.03h1.78l.09,1.81h.07c.63-1.07,1.67-2.06,3.52-2.06,1.53,0,2.69.93,3.17,2.25h.05c.35-.62.79-1.11,1.25-1.46.67-.51,1.41-.79,2.48-.79,1.48,0,3.68.97,3.68,4.86v6.6h-1.99v-6.35c0-2.15-.79-3.45-2.43-3.45-1.16,0-2.06.86-2.41,1.85-.09.28-.16.65-.16,1.02v6.93h-1.99v-6.72c0-1.78-.79-3.08-2.34-3.08-1.27,0-2.2,1.02-2.52,2.04-.12.3-.16.65-.16,1v6.76h-1.99v-8.18Z"/>
        <path class="cls-3" d="M132.3,63.49c.05,2.76,1.81,3.89,3.85,3.89,1.46,0,2.34-.25,3.1-.58l.35,1.46c-.72.32-1.95.69-3.73.69-3.45,0-5.51-2.27-5.51-5.65s1.99-6.05,5.26-6.05c3.66,0,4.63,3.22,4.63,5.28,0,.42-.05.74-.07.95h-7.88ZM138.28,62.03c.02-1.3-.53-3.31-2.83-3.31-2.06,0-2.96,1.9-3.13,3.31h5.95Z"/>
        <path class="cls-3" d="M142.77,60.55c0-1.16-.02-2.11-.09-3.03h1.81l.12,1.85h.05c.56-1.07,1.85-2.11,3.71-2.11,1.55,0,3.96.93,3.96,4.77v6.69h-2.04v-6.46c0-1.81-.67-3.31-2.59-3.31-1.34,0-2.39.95-2.73,2.08-.09.25-.14.6-.14.95v6.74h-2.04v-8.18Z"/>
        <path class="cls-3" d="M157.99,54.29v3.22h2.92v1.55h-2.92v6.05c0,1.39.39,2.18,1.53,2.18.53,0,.93-.07,1.18-.14l.09,1.53c-.39.16-1.02.28-1.81.28-.95,0-1.71-.3-2.2-.86-.58-.6-.79-1.6-.79-2.92v-6.12h-1.74v-1.55h1.74v-2.69l1.99-.53Z"/>
        <path class="cls-3" d="M55.06,96.52v-15.61h2.2l5,7.9c1.16,1.83,2.06,3.47,2.8,5.07l.05-.02c-.19-2.08-.23-3.98-.23-6.42v-6.53h1.9v15.61h-2.04l-4.96-7.92c-1.09-1.74-2.13-3.52-2.92-5.21l-.07.02c.12,1.97.16,3.85.16,6.44v6.67h-1.9Z"/>
        <path class="cls-3" d="M71.37,91.29c.05,2.76,1.81,3.89,3.85,3.89,1.46,0,2.34-.25,3.1-.58l.35,1.46c-.72.32-1.95.69-3.73.69-3.45,0-5.51-2.27-5.51-5.65s1.99-6.05,5.26-6.05c3.66,0,4.63,3.22,4.63,5.28,0,.42-.05.74-.07.95h-7.88ZM77.34,89.83c.02-1.3-.53-3.31-2.83-3.31-2.06,0-2.96,1.9-3.13,3.31h5.95Z"/>
        <path class="cls-3" d="M84.29,82.09v3.22h2.92v1.55h-2.92v6.05c0,1.39.39,2.18,1.53,2.18.53,0,.93-.07,1.18-.14l.09,1.53c-.39.16-1.02.28-1.81.28-.95,0-1.71-.3-2.2-.86-.58-.6-.79-1.6-.79-2.92v-6.12h-1.74v-1.55h1.74v-2.69l1.99-.53Z"/>
        <path class="cls-3" d="M90.52,85.31l1.48,5.7c.32,1.25.63,2.41.83,3.57h.07c.25-1.14.63-2.34,1-3.54l1.83-5.72h1.71l1.74,5.61c.42,1.34.74,2.52,1,3.66h.07c.19-1.14.49-2.32.86-3.64l1.6-5.63h2.02l-3.61,11.21h-1.85l-1.71-5.35c-.39-1.25-.72-2.36-1-3.68h-.05c-.28,1.34-.63,2.5-1.02,3.71l-1.81,5.33h-1.85l-3.38-11.21h2.08Z"/>
        <path class="cls-3" d="M116.67,90.82c0,4.15-2.87,5.95-5.58,5.95-3.03,0-5.37-2.22-5.37-5.77,0-3.75,2.46-5.95,5.56-5.95s5.4,2.34,5.4,5.77ZM107.78,90.94c0,2.46,1.41,4.31,3.4,4.31s3.4-1.83,3.4-4.35c0-1.9-.95-4.31-3.36-4.31s-3.45,2.22-3.45,4.35Z"/>
        <path class="cls-3" d="M119.24,88.81c0-1.32-.02-2.46-.09-3.5h1.78l.07,2.2h.09c.51-1.5,1.74-2.46,3.1-2.46.23,0,.39.02.58.07v1.92c-.21-.05-.42-.07-.7-.07-1.44,0-2.46,1.09-2.73,2.62-.05.28-.09.6-.09.95v5.98h-2.02v-7.71Z"/>
        <path class="cls-3" d="M128.92,90.45h.05c.28-.39.67-.88,1-1.27l3.29-3.87h2.46l-4.33,4.61,4.93,6.6h-2.48l-3.87-5.37-1.04,1.16v4.22h-2.02v-16.45h2.02v10.38Z"/>
      </g>
    </g>
  </g>
</svg>